<svg xmlns="http://www.w3.org/2000/svg" viewBox="0 0 24 24" fill="none">
  <rect x="1.5" y="1.5" width="21" height="21" rx="10.5" fill="#F0E9FF"/>
  <path d="M8.5 6.8L10.1 6.3C10.37 6.21 10.66 6.34 10.77 6.6L11.72 8.78C11.81 8.99 11.76 9.24 11.59 9.39L10.66 10.18C11.04 11 11.74 11.92 12.77 12.95C13.8 13.98 14.72 14.68 15.54 15.06L16.33 14.13C16.48 13.96 16.73 13.91 16.94 14L19.12 14.95C19.38 15.06 19.51 15.35 19.42 15.62L18.92 17.22C18.83 17.53 18.55 17.75 18.22 17.75C15.85 17.75 13.49 16.65 11.16 14.31C8.82 11.98 7.72 9.62 7.72 7.25C7.72 6.92 7.94 6.64 8.25 6.55" stroke="#7858CC" stroke-width="1.35" stroke-linecap="round" stroke-linejoin="round"/>
</svg>
